<svg xmlns="http://www.w3.org/2000/svg" viewBox="0 0 520 430" role="img" aria-labelledby="t d"><title id="t">About Vansh Garg</title><desc id="d">Developer profile card with an automotive gauge motif.</desc><rect width="520" height="430" rx="14" fill="#101010"/><rect x="1" y="1" width="518" height="428" rx="13" fill="none" stroke="#343434" stroke-width="2"/><text x="26" y="42" font-family="monospace" font-size="21" font-weight="700" fill="#fff"><tspan fill="#e50914">01_</tspan> ABOUT ME</text><path d="M26 55h468" stroke="#333"/>
<g transform="translate(128 188)"><circle r="108" fill="#070707" stroke="#444" stroke-width="8"/><circle r="88" fill="none" stroke="#e50914" stroke-width="4" stroke-dasharray="5 7"/><path d="M-72 42A84 84 0 0 1 72 42" fill="none" stroke="#eee" stroke-width="2"/><path d="M-58 50L14-35" stroke="#e50914" stroke-width="5"/><circle r="12" fill="#e50914"/><text x="-31" y="9" font-family="Arial" font-size="34" font-weight="900" fill="#fff">VG</text><text x="-50" y="137" font-family="monospace" font-size="11" fill="#aaa">FULL-STACK</text></g>
<text x="266" y="112" font-family="Arial" font-size="16" fill="#ddd">Full-stack developer focused on</text><text x="266" y="137" font-family="Arial" font-size="16" fill="#ddd">building complete, usable products—</text><text x="266" y="162" font-family="Arial" font-size="16" fill="#ddd">from reliable backends and data models</text><text x="266" y="187" font-family="Arial" font-size="16" fill="#ddd">to polished React interfaces.</text><path d="M266 211h220" stroke="#333"/>
<g font-family="Arial" font-size="15"><text x="48" y="330" fill="#e50914">▮</text><text x="76" y="330" fill="#fff" font-weight="700">Focus</text><text x="230" y="330" fill="#ccc">Full-stack web development</text><text x="48" y="366" fill="#e50914">▮</text><text x="76" y="366" fill="#fff" font-weight="700">Learning</text><text x="230" y="366" fill="#ccc">TypeScript &amp; system design</text><text x="48" y="402" fill="#e50914">▮</text><text x="76" y="402" fill="#fff" font-weight="700">Availability</text><text x="230" y="402" fill="#ccc">Internships &amp; full-time roles</text></g></svg>
