<svg xmlns="http://www.w3.org/2000/svg" viewBox="0 0 1200 400" role="img" aria-labelledby="t d">
<title id="t">About and technology stack</title>
<desc id="d">Unified dashboard row containing profile information and a verified technology stack with brand icons.</desc>
<defs>
  <linearGradient id="atBg" x1="0" y1="0" x2="1" y2="1">
    <stop offset="0%" stop-color="#0d0505"/>
    <stop offset="55%" stop-color="#0a0a0a"/>
    <stop offset="100%" stop-color="#0d0505"/>
  </linearGradient>
  <linearGradient id="atCard" x1="0" y1="0" x2="0" y2="1">
    <stop offset="0%" stop-color="#1d1414"/>
    <stop offset="45%" stop-color="#161010"/>
    <stop offset="100%" stop-color="#0e0b0b"/>
  </linearGradient>
  <linearGradient id="atCardHi" x1="0" y1="0" x2="0" y2="1">
    <stop offset="0%" stop-color="#3a1414" stop-opacity="0.9"/>
    <stop offset="100%" stop-color="#3a1414" stop-opacity="0"/>
  </linearGradient>
  <linearGradient id="atAccent" x1="0" y1="0" x2="1" y2="0">
    <stop offset="0%" stop-color="#ff5050"/>
    <stop offset="50%" stop-color="#e50914"/>
    <stop offset="100%" stop-color="#7a0a0f"/>
  </linearGradient>
  <radialGradient id="atAvatarGlow" cx="50%" cy="50%" r="60%">
    <stop offset="0%" stop-color="#ff2a2a" stop-opacity="0.35"/>
    <stop offset="100%" stop-color="#ff2a2a" stop-opacity="0"/>
  </radialGradient>
  <radialGradient id="atGlowSpot" cx="15%" cy="0%" r="70%">
    <stop offset="0%" stop-color="#e50914" stop-opacity="0.2"/>
    <stop offset="100%" stop-color="#e50914" stop-opacity="0"/>
  </radialGradient>
  <filter id="atShadow" x="-30%" y="-30%" width="160%" height="180%">
    <feDropShadow dx="0" dy="10" stdDeviation="14" flood-color="#000000" flood-opacity="0.55"/>
  </filter>
  <filter id="atGlow" x="-90%" y="-90%" width="280%" height="280%">
    <feGaussianBlur stdDeviation="6" result="b"/>
    <feMerge><feMergeNode in="b"/><feMergeNode in="SourceGraphic"/></feMerge>
  </filter>
  <filter id="atGlowSoft" x="-100%" y="-100%" width="300%" height="300%">
    <feGaussianBlur stdDeviation="14"/>
  </filter>
  <pattern id="atGrid" width="24" height="24" patternUnits="userSpaceOnUse">
    <path d="M24 0H0V24" fill="none" stroke="#ffffff" stroke-opacity="0.03"/>
  </pattern>
</defs>

<rect width="1200" height="400" fill="url(#atBg)"/>
<rect width="1200" height="400" fill="url(#atGrid)"/>
<rect width="1200" height="140" fill="url(#atGlowSpot)"/>
<circle cx="120" cy="150" r="130" fill="#e50914" opacity="0.12" filter="url(#atGlowSoft)"/>

<g filter="url(#atShadow)">
  <rect x="20" y="16" width="390" height="368" rx="18" fill="url(#atCard)" stroke="#3a2020" stroke-width="1.5"/>
  <rect x="420" y="16" width="760" height="368" rx="18" fill="url(#atCard)" stroke="#3a2020" stroke-width="1.5"/>
</g>
<g opacity="0.8">
  <rect x="20" y="16" width="390" height="70" rx="18" fill="url(#atCardHi)"/>
  <rect x="420" y="16" width="760" height="70" rx="18" fill="url(#atCardHi)"/>
</g>
<g fill="none" stroke="url(#atAccent)" stroke-width="2" opacity="0.9">
  <path d="M22 34V26a10 10 0 0 1 10-10h20"/>
  <path d="M422 34V26a10 10 0 0 1 10-10h20"/>
</g>

<g font-family="monospace" font-weight="700">
  <text x="46" y="48" fill="url(#atAccent)" font-size="16" letter-spacing="1">01_</text><text x="80" y="48" fill="#fff" font-size="16" letter-spacing="1.5">ABOUT ME</text>
  <text x="446" y="48" fill="url(#atAccent)" font-size="16" letter-spacing="1">02_</text><text x="480" y="48" fill="#fff" font-size="16" letter-spacing="1.5">TECH STACK</text>
</g>
<g fill="#3d2020"><circle cx="378" cy="42" r="3"/><circle cx="1148" cy="42" r="3"/></g>

<circle cx="128" cy="158" r="100" fill="url(#atAvatarGlow)"/>
<g filter="url(#atGlow)" transform="translate(128 158) scale(.82)">
  <circle r="88" fill="#150c0c" stroke="url(#atAccent)" stroke-width="4"/>
  <circle r="68" fill="none" stroke="#e50914" stroke-width="3.5" stroke-dasharray="4 7"/>
  <path d="M-57 37A68 68 0 0 1 57 37" fill="none" stroke="#f5f5f5" stroke-width="2"/>
  <path d="M-45 42L18-30" stroke="#ff4040" stroke-width="5" stroke-linecap="round"/>
  <circle r="9" fill="#ff2a2a"/>
  <text x="-29" y="10" fill="#fff" font-family="Arial" font-size="31" font-weight="800">VG</text>
</g>

<g font-family="Arial" font-size="12.5" fill="#d4cccc">
  <text x="233" y="118">Full-stack developer</text>
  <text x="233" y="138">focused on building</text>
  <text x="233" y="158">complete products —</text>
  <text x="233" y="178">from reliable backends</text>
  <text x="233" y="198">to polished interfaces.</text>
</g>

<path d="M46 216h334" stroke="url(#atAccent)" stroke-opacity="0.35"/>

<g font-family="Arial" font-size="12">
  <g fill="#a89a9a"><text x="46" y="252">LOCATION</text><text x="46" y="288">EXPERIENCE</text><text x="46" y="324">AVAILABILITY</text></g>
  <g fill="#f5f0f0" font-weight="700"><text x="168" y="252">India</text><text x="168" y="288">5 Months (Intern)</text><text x="168" y="324">Internships &amp; full-time roles</text></g>
</g>
<g fill="url(#atAccent)" filter="url(#atGlow)"><rect x="46" y="240" width="4" height="16" rx="2"/><rect x="46" y="276" width="4" height="16" rx="2"/><rect x="46" y="312" width="4" height="16" rx="2"/></g>

<g font-family="Arial">
  <g fill="url(#atAccent)" font-size="12.5" font-weight="800" letter-spacing="0.6">
    <text x="470" y="108">LANGUAGES</text><text x="470" y="156">FRONTEND</text><text x="470" y="204">BACKEND</text>
    <text x="470" y="252">DATABASE</text><text x="470" y="300">DEVOPS</text><text x="470" y="348">TOOLS</text>
  </g>
</g>

<g font-family="monospace" font-size="10.5" font-weight="700" text-anchor="middle" filter="url(#atGlow)">
  <rect x="600" y="90" width="30" height="24" rx="7" fill="#f7df1e"/><text x="615" y="107" fill="#111">JS</text>
  <rect x="636" y="90" width="30" height="24" rx="7" fill="#3178c6"/><text x="651" y="107" fill="#fff">TS</text>
  <rect x="672" y="90" width="30" height="24" rx="7" fill="#3776ab"/><text x="687" y="107" fill="#fff">PY</text>
  <rect x="708" y="90" width="30" height="24" rx="7" fill="#e76f00"/><text x="723" y="107" fill="#fff">J</text>

  <rect x="600" y="138" width="30" height="24" rx="7" fill="#61dafb"/><text x="615" y="155" fill="#111">R</text>
  <rect x="636" y="138" width="30" height="24" rx="7" fill="#646cff"/><text x="651" y="155" fill="#fff">V</text>
  <rect x="672" y="138" width="30" height="24" rx="7" fill="#38bdf8"/><text x="687" y="155" fill="#111">TW</text>
  <rect x="708" y="138" width="30" height="24" rx="7" fill="#e34c26"/><text x="723" y="155" fill="#fff">H</text>

  <rect x="600" y="186" width="30" height="24" rx="7" fill="#339933"/><text x="615" y="203" fill="#fff">N</text>
  <rect x="636" y="186" width="30" height="24" rx="7" fill="#5a5a5a"/><text x="651" y="203" fill="#fff">EX</text>
  <rect x="672" y="186" width="30" height="24" rx="7" fill="#6db33f"/><text x="687" y="203" fill="#fff">SB</text>

  <rect x="600" y="234" width="30" height="24" rx="7" fill="#47a248"/><text x="615" y="251" fill="#fff">M</text>
  <rect x="636" y="234" width="30" height="24" rx="7" fill="#336791"/><text x="651" y="251" fill="#fff">PG</text>

  <rect x="600" y="282" width="30" height="24" rx="7" fill="#2496ed"/><text x="615" y="299" fill="#fff">DK</text>
  <rect x="636" y="282" width="30" height="24" rx="7" fill="#0a0a0a" stroke="#777"/><text x="651" y="299" fill="#fff">V</text>

  <rect x="600" y="330" width="30" height="24" rx="7" fill="#f05032"/><text x="615" y="347" fill="#fff">G</text>
  <rect x="636" y="330" width="30" height="24" rx="7" fill="#181717" stroke="#555"/><text x="651" y="347" fill="#fff">GH</text>
  <rect x="672" y="330" width="30" height="24" rx="7" fill="#ff6c37"/><text x="687" y="347" fill="#fff">PM</text>
</g>

<g fill="#d0c8c8" font-family="Arial" font-size="13">
  <text x="770" y="107">JavaScript · TypeScript · Python · Java</text>
  <text x="770" y="155">React · Vite · Tailwind CSS · HTML</text>
  <text x="770" y="203">Node.js · Express · Spring Boot</text>
  <text x="770" y="251">MongoDB · PostgreSQL</text>
  <text x="770" y="299">Docker · Vercel</text>
  <text x="770" y="347">Git · GitHub · Postman</text>
</g>

<g stroke="url(#atAccent)" stroke-opacity="0.18"><path d="M448 126h704"/><path d="M448 174h704"/><path d="M448 222h704"/><path d="M448 270h704"/><path d="M448 318h704"/></g>
</svg>
