<svg xmlns="http://www.w3.org/2000/svg" viewBox="0 0 1200 400" role="img" aria-labelledby="t d">
<title id="t">About and technology stack</title><desc id="d">Unified dashboard row containing profile information and a verified technology stack with brand icons.</desc>
<rect width="1200" height="400" fill="#0d0d0d" stroke="#333"/><path d="M420 0v400" stroke="#333" stroke-width="2"/>
<g font-family="monospace" font-weight="700"><text x="30" y="42" fill="#e50914" font-size="19">01_</text><text x="88" y="42" fill="#fff" font-size="19">ABOUT ME</text><text x="450" y="42" fill="#e50914" font-size="19">02_</text><text x="508" y="42" fill="#fff" font-size="19">TECH STACK</text></g><path d="M30 60h355M450 60h720" stroke="#333"/>
<g transform="translate(120 182)"><circle r="88" fill="#070707" stroke="#555" stroke-width="7"/><circle r="68" fill="none" stroke="#e50914" stroke-width="4" stroke-dasharray="4 7"/><path d="M-57 37A68 68 0 0 1 57 37" fill="none" stroke="#eee" stroke-width="2"/><path d="M-45 42L18-30" stroke="#e50914" stroke-width="5"/><circle r="9" fill="#e50914"/><text x="-29" y="10" fill="#fff" font-family="Arial" font-size="31">VG</text></g>
<g font-family="Arial" font-size="14" fill="#ddd"><text x="220" y="112">Full-stack developer focused on</text><text x="220" y="134">building complete products — from</text><text x="220" y="156">reliable backends and data models</text><text x="220" y="178">to polished React interfaces.</text></g>
<g font-family="Arial" font-size="12"><g fill="#ccc"><text x="45" y="300">LOCATION</text><text x="45" y="335">EXPERIENCE</text><text x="45" y="370">AVAILABILITY</text><text x="165" y="300">India</text><text x="165" y="335">5 Months (Intern)</text><text x="165" y="370">Internships &amp; full-time roles</text></g></g><g fill="#e50914"><rect x="30" y="288" width="5" height="16"/><rect x="30" y="323" width="5" height="16"/><rect x="30" y="358" width="5" height="16"/></g>
<g font-family="Arial"><g fill="#e50914" font-size="14" font-weight="700"><text x="480" y="108">LANGUAGES</text><text x="480" y="156">FRONTEND</text><text x="480" y="204">BACKEND</text><text x="480" y="252">DATABASE</text><text x="480" y="300">DEVOPS</text><text x="480" y="348">TOOLS</text></g>
<g fill="#ccc" font-size="15"><text x="790" y="106">JavaScript · TypeScript · Python · Java</text><text x="790" y="154">React · Vite · Tailwind CSS · HTML</text><text x="790" y="202">Node.js · Express · Spring Boot</text><text x="790" y="250">MongoDB · PostgreSQL</text><text x="790" y="298">Docker · Vercel</text><text x="790" y="346">Git · GitHub · Postman</text></g></g>
<g font-family="monospace" font-size="10" font-weight="700" text-anchor="middle">
<rect x="630" y="89" width="30" height="24" fill="#f7df1e"/><text x="645" y="105" fill="#111">JS</text><rect x="666" y="89" width="30" height="24" fill="#3178c6"/><text x="681" y="105" fill="#fff">TS</text><rect x="702" y="89" width="30" height="24" fill="#3776ab"/><text x="717" y="105" fill="#fff">PY</text><rect x="738" y="89" width="30" height="24" fill="#e76f00"/><text x="753" y="105" fill="#fff">J</text>
<rect x="630" y="137" width="30" height="24" fill="#61dafb"/><text x="645" y="153" fill="#111">R</text><rect x="666" y="137" width="30" height="24" fill="#646cff"/><text x="681" y="153" fill="#fff">V</text><rect x="702" y="137" width="30" height="24" fill="#38bdf8"/><text x="717" y="153" fill="#111">TW</text><rect x="738" y="137" width="30" height="24" fill="#e34c26"/><text x="753" y="153" fill="#fff">H</text>
<rect x="630" y="185" width="30" height="24" fill="#339933"/><text x="645" y="201" fill="#fff">N</text><rect x="666" y="185" width="30" height="24" fill="#444"/><text x="681" y="201" fill="#fff">EX</text><rect x="702" y="185" width="30" height="24" fill="#6db33f"/><text x="717" y="201" fill="#fff">SB</text>
<rect x="630" y="233" width="30" height="24" fill="#47a248"/><text x="645" y="249" fill="#fff">M</text><rect x="666" y="233" width="30" height="24" fill="#336791"/><text x="681" y="249" fill="#fff">PG</text>
<rect x="630" y="281" width="30" height="24" fill="#2496ed"/><text x="645" y="297" fill="#fff">DK</text><rect x="666" y="281" width="30" height="24" fill="#000" stroke="#777"/><text x="681" y="297" fill="#fff">V</text>
<rect x="630" y="329" width="30" height="24" fill="#f05032"/><text x="645" y="345" fill="#fff">G</text><rect x="666" y="329" width="30" height="24" fill="#181717"/><text x="681" y="345" fill="#fff">GH</text><rect x="702" y="329" width="30" height="24" fill="#ff6c37"/><text x="717" y="345" fill="#fff">PM</text>
</g>
<g stroke="#282828"><path d="M450 126h720"/><path d="M450 174h720"/><path d="M450 222h720"/><path d="M450 270h720"/><path d="M450 318h720"/></g>
</svg>
