<svg xmlns="http://www.w3.org/2000/svg" viewBox="0 0 290 56" role="img" aria-labelledby="t"><title id="t">View Projects</title>
<defs>
  <linearGradient id="bp" x1="0" y1="0" x2="0" y2="1">
    <stop offset="0%" stop-color="#ff2020"/>
    <stop offset="100%" stop-color="#b8050c"/>
  </linearGradient>
  <filter id="gp" x="-60%" y="-60%" width="220%" height="220%">
    <feGaussianBlur stdDeviation="4" result="b"/>
    <feMerge><feMergeNode in="b"/><feMergeNode in="SourceGraphic"/></feMerge>
  </filter>
</defs>
<g filter="url(#gp)"><rect x="2" y="2" width="286" height="52" rx="8" fill="url(#bp)"/></g>
<g font-family="monospace" font-weight="700" font-size="15" fill="#fff">
  <path d="M32 20c-9 0-15 6-15 15c0 7 4.5 13 11 15c0.8 0.15 1.1-0.35 1.1-0.78c0-0.4-0.02-1.7-0.02-3.1c-4.5 1-5.4-1.9-5.4-1.9c-0.75-1.9-1.8-2.4-1.8-2.4c-1.5-1 0.1-1 0.1-1c1.6 0.1 2.5 1.65 2.5 1.65c1.45 2.5 3.8 1.8 4.7 1.35c0.15-1.05 0.57-1.8 1.03-2.2c-3.6-0.4-7.4-1.8-7.4-8c0-1.75 0.6-3.2 1.6-4.3c-0.15-0.4-0.7-2 0.15-4.2c0 0 1.3-0.4 4.3 1.65c1.25-0.35 2.6-0.5 3.9-0.5c1.3 0 2.65 0.15 3.9 0.5c3-2.05 4.3-1.65 4.3-1.65c0.85 2.2 0.3 3.8 0.15 4.2c1 1.1 1.6 2.55 1.6 4.3c0 6.2-3.8 7.6-7.4 8c0.6 0.5 1.1 1.5 1.1 3c0 2.2-0.02 3.9-0.02 4.45c0 0.43 0.3 0.94 1.1 0.78c6.5-2.2 11-8.3 11-15c0-9-6-15-15-15" fill="#fff"/>
  <text x="58" y="34">VIEW PROJECTS</text>
  <path d="M245 26l8 6l-8 6" stroke="#fff" stroke-width="2.4" fill="none" stroke-linecap="round" stroke-linejoin="round"/>
</g>
</svg>
