<svg xmlns="http://www.w3.org/2000/svg" viewBox="0 0 1200 350" role="img" aria-labelledby="t d"><title id="t">Experience highlights and currently exploring</title><desc id="d">One unified dashboard row with engineering work highlights and learning goals.</desc><rect width="1200" height="350" fill="#0d0d0d" stroke="#333"/><path d="M720 0v350" stroke="#333" stroke-width="2"/><g font-family="monospace" font-weight="700" font-size="19"><text x="30" y="42" fill="#e50914">05_</text><text x="88" y="42" fill="#fff">EXPERIENCE HIGHLIGHTS</text><text x="750" y="42" fill="#e50914">06_</text><text x="808" y="42" fill="#fff">CURRENTLY EXPLORING</text></g><path d="M30 60h660M750 60h420" stroke="#333"/><g fill="#ddd" font-family="Arial" font-size="15"><text x="60" y="105">Built full-stack job-tracking workflows for applications, interviews and follow-ups.</text><text x="60" y="145">Implemented JWT authentication, protected routes and role-based access controls.</text><text x="60" y="185">Created React interfaces with Vite, Tailwind CSS and Redux Toolkit.</text><text x="60" y="225">Designed booking and order flows with real-time availability and payment integration.</text><text x="60" y="265">Developed APIs using Node.js, Express and Spring Boot with MongoDB and PostgreSQL.</text><text x="60" y="305">Containerized application work with Docker and deployed live project experiences.</text></g><g fill="#e50914" font-family="monospace" font-size="18"><text x="35" y="105">›</text><text x="35" y="145">›</text><text x="35" y="185">›</text><text x="35" y="225">›</text><text x="35" y="265">›</text><text x="35" y="305">›</text></g><g fill="#ddd" font-family="Arial" font-size="16"><text x="815" y="115">TypeScript foundations</text><text x="815" y="160">System design fundamentals</text><text x="815" y="205">MERN-stack product development</text><text x="815" y="250">Practical machine learning</text></g><g fill="#e50914" font-family="monospace" font-size="18"><text x="790" y="115">›</text><text x="790" y="160">›</text><text x="790" y="205">›</text><text x="790" y="250">›</text></g><path d="M770 315h390" stroke="#e50914" stroke-opacity=".6"/><text x="965" y="300" text-anchor="middle" fill="#e50914" font-family="monospace" font-size="13" font-weight="700">ALWAYS LEARNING. ALWAYS BUILDING.</text></svg>
