<svg xmlns="http://www.w3.org/2000/svg" viewBox="0 0 1200 530" role="img" aria-labelledby="title desc">
<title id="title">Vansh Garg — Full-Stack Developer</title><desc id="desc">Dark automotive developer dashboard with an original supercar image.</desc>
<defs><linearGradient id="shade" x2="1"><stop stop-color="#050505" offset=".36"/><stop stop-color="#050505" stop-opacity=".9" offset=".5"/><stop stop-color="#050505" stop-opacity="0" offset=".82"/></linearGradient></defs>
<rect width="1200" height="530" rx="16" fill="#050505"/><image href="hero-car.png" width="1200" height="530" preserveAspectRatio="xMidYMid slice"/><rect width="1200" height="530" rx="16" fill="url(#shade)"/><rect x="1" y="1" width="1198" height="528" rx="15" fill="none" stroke="#343434" stroke-width="2"/>
<path d="M28 48H1172" stroke="#2a2a2a"/><text x="28" y="28" fill="#e50914" font-family="monospace" font-weight="700" font-size="15">› VG_01.README</text><text x="789" y="28" fill="#ddd" font-family="monospace" font-size="14">› BUILDING SOLUTIONS. <tspan fill="#e50914" font-weight="700">DRIVING IMPACT.</tspan></text>
<path d="M45 72V420" stroke="#e50914" stroke-width="3"/><text x="28" y="250" fill="#bbb" font-family="monospace" font-size="12" transform="rotate(-90 28 250)">AVAILABLE FOR WORK</text>
<text x="75" y="162" fill="#fff" font-family="Arial, sans-serif" font-weight="900" font-style="italic" font-size="72">VANSH</text><text x="365" y="162" fill="#e50914" font-family="Arial, sans-serif" font-weight="900" font-style="italic" font-size="72">GARG</text>
<text x="78" y="205" fill="#eee" font-family="monospace" font-size="22" letter-spacing="8">FULL-STACK DEVELOPER</text><path d="M80 225H465" stroke="#e50914" stroke-width="2"/><path d="M472 218l9 7-9 7m16-14 9 7-9 7m16-14 9 7-9 7" fill="none" stroke="#e50914"/>
<text x="78" y="260" fill="#ddd" font-family="Arial, sans-serif" font-size="18">Building complete products, from data models</text><text x="78" y="287" fill="#ddd" font-family="Arial, sans-serif" font-size="18">to polished interfaces that solve real problems.</text>
<g font-family="monospace" font-size="14" font-weight="700"><rect x="78" y="315" width="157" height="43" rx="5" fill="#e50914"/><text x="94" y="342" fill="white">VIEW PROJECTS ›</text><rect x="246" y="315" width="165" height="43" rx="5" fill="#101010" stroke="#777"/><text x="263" y="342" fill="white">VISIT GITHUB ↗</text><rect x="422" y="315" width="148" height="43" rx="5" fill="#101010" stroke="#777"/><text x="440" y="342" fill="white">CONTACT ME ↗</text></g>
<rect x="650" y="430" width="520" height="70" rx="7" fill="#0d0d0d" fill-opacity=".92" stroke="#2a2a2a"/><g font-family="monospace"><text x="676" y="454" fill="#aaa" font-size="11">SYSTEM STATUS</text><text x="676" y="476" fill="#e50914" font-size="18" font-weight="700">BUILDING</text><text x="844" y="454" fill="#aaa" font-size="11">FOCUS MODE</text><text x="844" y="476" fill="#ff1e1e" font-size="18" font-weight="700">100%</text><text x="985" y="454" fill="#aaa" font-size="11">COFFEE LEVEL</text><text x="985" y="476" fill="#e50914" font-size="18">■■■■■■■■□□</text></g>
<text x="78" y="402" fill="#aaa" font-family="monospace" font-size="14">◉  github.com/VKGarg7</text><text x="320" y="402" fill="#aaa" font-family="monospace" font-size="14">◉  linkedin.com/in/vansh-garg-bb5060202</text>
</svg>
