<svg xmlns="http://www.w3.org/2000/svg" viewBox="0 0 400 300" role="img" aria-labelledby="t d"><title id="t">Food Delivery Website</title><desc id="d">Full-stack food delivery application.</desc><rect width="400" height="300" rx="12" fill="#101010"/><rect x="1" y="1" width="398" height="298" rx="11" fill="none" stroke="#3a3a3a" stroke-width="2"/><rect x="18" y="20" width="364" height="92" rx="7" fill="#171717"/><path d="M45 85h210l34-31h43l21 31h-17" fill="none" stroke="#e50914" stroke-width="4"/><circle cx="103" cy="91" r="13" fill="none" stroke="#eee" stroke-width="3"/><circle cx="310" cy="91" r="13" fill="none" stroke="#eee" stroke-width="3"/><text x="20" y="145" fill="#fff" font-family="Arial" font-size="21" font-weight="700">FOOD DELIVERY</text><text x="20" y="172" fill="#ccc" font-family="Arial" font-size="14">Food ordering platform with authentication,</text><text x="20" y="192" fill="#ccc" font-family="Arial" font-size="14">restaurant menus, admin tools and order tracking.</text><g font-family="monospace" font-size="12" font-weight="700"><rect x="20" y="225" width="61" height="25" rx="4" fill="#272727"/><text x="27" y="242" fill="#fff">REACT</text><rect x="88" y="225" width="61" height="25" rx="4" fill="#272727"/><text x="95" y="242" fill="#fff">NODE</text><rect x="156" y="225" width="73" height="25" rx="4" fill="#272727"/><text x="163" y="242" fill="#fff">MONGODB</text><rect x="236" y="225" width="75" height="25" rx="4" fill="#272727"/><text x="243" y="242" fill="#fff">REDUX</text></g><text x="20" y="280" fill="#e50914" font-family="monospace" font-size="12">FULL-STACK • LIVE</text></svg>
