<svg xmlns="http://www.w3.org/2000/svg" viewBox="0 0 400 300" role="img" aria-labelledby="t d"><title id="t">MovieTix</title><desc id="d">Full-stack movie ticket booking platform.</desc><rect width="400" height="300" rx="12" fill="#101010"/><rect x="1" y="1" width="398" height="298" rx="11" fill="none" stroke="#3a3a3a" stroke-width="2"/><rect x="18" y="20" width="364" height="92" rx="7" fill="#171717"/><path d="M44 91V42h77v49M145 91V42h77v49M246 91V42h77v49" fill="none" stroke="#e50914" stroke-width="3"/><path d="M37 55h293" stroke="#fff" stroke-opacity=".45"/><text x="20" y="145" fill="#fff" font-family="Arial" font-size="21" font-weight="700">MOVIETIX</text><text x="20" y="172" fill="#ccc" font-family="Arial" font-size="14">Movie ticket booking platform with role-based</text><text x="20" y="192" fill="#ccc" font-family="Arial" font-size="14">access, seat selection, orders and Stripe payments.</text><g font-family="monospace" font-size="12" font-weight="700"><rect x="20" y="225" width="61" height="25" rx="4" fill="#272727"/><text x="27" y="242" fill="#fff">REACT</text><rect x="88" y="225" width="61" height="25" rx="4" fill="#272727"/><text x="95" y="242" fill="#fff">NODE</text><rect x="156" y="225" width="73" height="25" rx="4" fill="#272727"/><text x="163" y="242" fill="#fff">MONGODB</text><rect x="236" y="225" width="61" height="25" rx="4" fill="#272727"/><text x="243" y="242" fill="#fff">STRIPE</text></g><text x="20" y="280" fill="#e50914" font-family="monospace" font-size="12">FULL-STACK • LIVE</text></svg>
