<svg xmlns="http://www.w3.org/2000/svg" viewBox="0 0 1200 330" role="img" aria-labelledby="t d"><title id="t">Featured projects</title><desc id="d">A unified row featuring CareerFlow, MovieTix and a food delivery platform, each with view code and live demo actions.</desc><rect width="1200" height="330" fill="#0d0d0d" stroke="#333"/><path d="M400 0v330M800 0v330" stroke="#333"/><g font-family="monospace" font-size="14" font-weight="700"><text x="30" y="35" fill="#e50914">PROJECT 01</text><text x="430" y="35" fill="#e50914">PROJECT 02</text><text x="830" y="35" fill="#e50914">PROJECT 03</text></g><g fill="#151515"><rect x="30" y="55" width="340" height="82"/><rect x="430" y="55" width="340" height="82"/><rect x="830" y="55" width="340" height="82"/></g>
<g fill="#0d0d0d" stroke="#2a2a2a"><rect x="30" y="55" width="340" height="18"/><rect x="430" y="55" width="340" height="18"/><rect x="830" y="55" width="340" height="18"/></g>
<g fill="#555"><circle cx="42" cy="64" r="3"/><circle cx="52" cy="64" r="3"/><circle cx="62" cy="64" r="3"/><circle cx="442" cy="64" r="3"/><circle cx="452" cy="64" r="3"/><circle cx="462" cy="64" r="3"/><circle cx="842" cy="64" r="3"/><circle cx="852" cy="64" r="3"/><circle cx="862" cy="64" r="3"/></g>
<g fill="#242424"><rect x="46" y="83" width="90" height="42" rx="2"/><rect x="446" y="83" width="90" height="42" rx="2"/><rect x="846" y="83" width="90" height="42" rx="2"/></g>
<g fill="none" stroke="#e50914" stroke-width="2.5" stroke-linecap="round" stroke-linejoin="round">
<rect x="66" y="98" width="40" height="20" rx="2"/><path d="M76 98v-6a6 6 0 0 1 12 0v6"/>
<rect x="466" y="92" width="52" height="26" rx="4"/><path d="M492 92v6M492 104v6M492 116v6" stroke-dasharray="1 5"/>
<path d="M868 92v26M878 92l-6 8v18M888 92l-4 8v18" stroke-linecap="round"/>
</g>
<g fill="#333"><rect x="146" y="83" width="204" height="8" rx="2"/><rect x="146" y="97" width="164" height="8" rx="2"/><rect x="146" y="111" width="120" height="8" rx="2"/><rect x="546" y="83" width="204" height="8" rx="2"/><rect x="546" y="97" width="164" height="8" rx="2"/><rect x="546" y="111" width="120" height="8" rx="2"/><rect x="946" y="83" width="204" height="8" rx="2"/><rect x="946" y="97" width="164" height="8" rx="2"/><rect x="946" y="111" width="120" height="8" rx="2"/></g>
<g fill="#e50914"><rect x="146" y="83" width="36" height="8" rx="2"/><rect x="546" y="83" width="36" height="8" rx="2"/><rect x="946" y="83" width="36" height="8" rx="2"/></g><g fill="#fff" font-family="Arial" font-size="21" font-weight="700"><text x="30" y="170">CAREERFLOW</text><text x="430" y="170">MOVIETIX</text><text x="830" y="170">FOOD DELIVERY</text></g><g fill="#ddd" font-family="Arial" font-size="14"><text x="30" y="198">Job search command center for tracking</text><text x="30" y="218">applications, interviews and follow-ups.</text><text x="430" y="198">Movie ticket booking with role-based</text><text x="430" y="218">access, seat selection and Stripe payments.</text><text x="830" y="198">Food ordering with authentication, menus</text><text x="830" y="218">and restaurant order tracking.</text></g><g fill="#aaa" font-family="monospace" font-size="12"><text x="30" y="248">JAVA · REACT · POSTGRES · DOCKER</text><text x="430" y="248">REACT · NODE · MONGODB · STRIPE</text><text x="830" y="248">REACT · NODE · MONGODB · REDUX</text></g>
<g font-family="monospace" font-size="11" font-weight="700"><rect x="30" y="262" width="90" height="26" fill="#1a1a1a" stroke="#444"/><text x="75" y="279" text-anchor="middle" fill="#eee">VIEW CODE</text><rect x="128" y="262" width="94" height="26" fill="#e50914"/><text x="175" y="279" text-anchor="middle" fill="#fff">LIVE DEMO</text>
<rect x="430" y="262" width="90" height="26" fill="#1a1a1a" stroke="#444"/><text x="475" y="279" text-anchor="middle" fill="#eee">VIEW CODE</text><rect x="528" y="262" width="94" height="26" fill="#e50914"/><text x="575" y="279" text-anchor="middle" fill="#fff">LIVE DEMO</text>
<rect x="830" y="262" width="90" height="26" fill="#1a1a1a" stroke="#444"/><text x="875" y="279" text-anchor="middle" fill="#eee">VIEW CODE</text><rect x="928" y="262" width="94" height="26" fill="#e50914"/><text x="975" y="279" text-anchor="middle" fill="#fff">LIVE DEMO</text></g>
<g fill="#e50914" font-family="monospace" font-size="11"><text x="30" y="312">TOP PROJECT · LIVE</text><text x="430" y="312">FULL-STACK · LIVE</text><text x="830" y="312">FULL-STACK · LIVE</text></g></svg>
