<svg xmlns="http://www.w3.org/2000/svg" viewBox="0 0 1200 330" role="img" aria-labelledby="t d"><title id="t">Featured projects</title><desc id="d">A unified row featuring CareerFlow, MovieTix and a food delivery platform.</desc><rect width="1200" height="330" fill="#0d0d0d" stroke="#333"/><path d="M400 0v330M800 0v330" stroke="#333"/><g font-family="monospace" font-size="14" font-weight="700"><text x="30" y="35" fill="#e50914">PROJECT 01</text><text x="430" y="35" fill="#e50914">PROJECT 02</text><text x="830" y="35" fill="#e50914">PROJECT 03</text></g><g fill="#151515"><rect x="30" y="55" width="340" height="82"/><rect x="430" y="55" width="340" height="82"/><rect x="830" y="55" width="340" height="82"/></g><g fill="none" stroke="#e50914" stroke-width="3"><path d="M42 118h66V83h65v35h64V72h115"/><path d="M450 118V77h72v41m20 0V77h72v41m20 0V77h72v41"/><path d="M850 113h180l35-29h33l21 29"/></g><g fill="#fff" font-family="Arial" font-size="21" font-weight="700"><text x="30" y="170">CAREERFLOW</text><text x="430" y="170">MOVIETIX</text><text x="830" y="170">FOOD DELIVERY</text></g><g fill="#ddd" font-family="Arial" font-size="14"><text x="30" y="198">Job search command center for tracking</text><text x="30" y="218">applications, interviews and follow-ups.</text><text x="430" y="198">Movie ticket booking with role-based</text><text x="430" y="218">access, seat selection and Stripe payments.</text><text x="830" y="198">Food ordering with authentication, menus</text><text x="830" y="218">and restaurant order tracking.</text></g><g fill="#aaa" font-family="monospace" font-size="12"><text x="30" y="267">JAVA  ·  REACT  ·  POSTGRES  ·  DOCKER</text><text x="430" y="267">REACT  ·  NODE  ·  MONGODB  ·  STRIPE</text><text x="830" y="267">REACT  ·  NODE  ·  MONGODB  ·  REDUX</text></g><g fill="#e50914" font-family="monospace" font-size="11"><text x="30" y="301">TOP PROJECT · LIVE</text><text x="430" y="301">FULL-STACK · LIVE</text><text x="830" y="301">FULL-STACK · LIVE</text></g></svg>
