<svg xmlns="http://www.w3.org/2000/svg" viewBox="0 0 400 300" role="img" aria-labelledby="t d"><title id="t">CareerFlow</title><desc id="d">Smart job application tracking platform.</desc><rect width="400" height="300" rx="12" fill="#101010"/><rect x="1" y="1" width="398" height="298" rx="11" fill="none" stroke="#3a3a3a" stroke-width="2"/><rect x="18" y="20" width="364" height="92" rx="7" fill="#171717"/><path d="M30 90h72V50h70v40h70V38h125" fill="none" stroke="#e50914" stroke-width="3"/><circle cx="102" cy="50" r="6" fill="#ff1e1e"/><circle cx="242" cy="38" r="6" fill="#ff1e1e"/><text x="20" y="145" fill="#fff" font-family="Arial" font-size="21" font-weight="700">CAREERFLOW</text><text x="20" y="172" fill="#ccc" font-family="Arial" font-size="14">Job search command center for tracking</text><text x="20" y="192" fill="#ccc" font-family="Arial" font-size="14">applications, interviews, contacts and follow-ups.</text><g font-family="monospace" font-size="12" font-weight="700"><rect x="20" y="225" width="48" height="25" rx="4" fill="#272727"/><text x="27" y="242" fill="#fff">JAVA</text><rect x="75" y="225" width="61" height="25" rx="4" fill="#272727"/><text x="82" y="242" fill="#fff">REACT</text><rect x="143" y="225" width="91" height="25" rx="4" fill="#272727"/><text x="150" y="242" fill="#fff">POSTGRES</text><rect x="241" y="225" width="65" height="25" rx="4" fill="#272727"/><text x="248" y="242" fill="#fff">DOCKER</text></g><text x="20" y="280" fill="#e50914" font-family="monospace" font-size="12">TOP PROJECT • LIVE</text></svg>
