<svg xmlns="http://www.w3.org/2000/svg" viewBox="0 0 700 430" role="img" aria-labelledby="t d"><title id="t">Verified technology stack</title><desc id="d">Languages and technologies used across Vansh Garg's public repositories.</desc><rect width="700" height="430" rx="14" fill="#101010"/><rect x="1" y="1" width="698" height="428" rx="13" fill="none" stroke="#343434" stroke-width="2"/><text x="28" y="42" font-family="monospace" font-size="21" font-weight="700" fill="#fff"><tspan fill="#e50914">02_</tspan> TECH STACK</text><path d="M28 56h644" stroke="#333"/>
<g font-family="Arial" font-size="15"><g fill="#e50914" font-weight="700"><text x="42" y="101">LANGUAGES</text><text x="42" y="156">FRONTEND</text><text x="42" y="211">BACKEND</text><text x="42" y="266">DATABASE</text><text x="42" y="321">DEVOPS</text><text x="42" y="376">TOOLS</text></g><g fill="#eee" font-size="18"><text x="230" y="101">JavaScript   TypeScript   Python   Java</text><text x="230" y="156">React   Vite   Tailwind CSS   HTML   CSS</text><text x="230" y="211">Node.js   Express   Spring Boot</text><text x="230" y="266">MongoDB   PostgreSQL</text><text x="230" y="321">Docker   Vercel</text><text x="230" y="376">Git   GitHub   Postman</text></g></g><g stroke="#333"><path d="M28 120h644"/><path d="M28 175h644"/><path d="M28 230h644"/><path d="M28 285h644"/><path d="M28 340h644"/></g><g fill="#e50914"><circle cx="205" cy="96" r="5"/><circle cx="205" cy="151" r="5"/><circle cx="205" cy="206" r="5"/><circle cx="205" cy="261" r="5"/><circle cx="205" cy="316" r="5"/><circle cx="205" cy="371" r="5"/></g></svg>
