<svg xmlns="http://www.w3.org/2000/svg" viewBox="0 0 1200 320" role="img" aria-labelledby="t d"><title id="t">GitHub telemetry</title><desc id="d">GitHub contribution stats: total contributions, current streak, longest streak and a contribution activity grid.</desc>
<rect width="1200" height="320" fill="#0d0d0d" stroke="#333"/>
<g font-family="monospace" font-weight="700" font-size="19"><text x="30" y="42" fill="#e50914">04_</text><text x="88" y="42" fill="#fff">GITHUB TELEMETRY</text></g><path d="M30 60h1140" stroke="#333"/>
<path d="M290 80v130M560 80v130" stroke="#282828"/>
<g font-family="monospace" fill="#aaa" font-size="11" font-weight="700"><text x="30" y="100">TOTAL CONTRIBUTIONS</text><text x="320" y="100">CURRENT STREAK</text><text x="590" y="100">LONGEST STREAK</text></g>
<text x="30" y="150" fill="#fff" font-family="Arial" font-size="34" font-weight="700">754</text><text x="30" y="172" fill="#777" font-family="Arial" font-size="12">Aug 6, 2023 - Present</text>
<g transform="translate(370 145)"><circle r="34" fill="none" stroke="#e50914" stroke-width="4"/><path d="M0-13c5 7-6 8-2 15c2 4 8 4 9-2c3 5 0 12-5 13c-8 2-15-5-13-13c1-5 6-8 6-15" fill="#e50914"/></g><text x="370" y="200" text-anchor="middle" fill="#fff" font-family="Arial" font-size="26" font-weight="700">3</text>
<text x="590" y="150" fill="#fff" font-family="Arial" font-size="34" font-weight="700">7</text><text x="590" y="172" fill="#777" font-family="Arial" font-size="12">Apr 13 - Apr 19, 2024</text>
<path d="M30 210h1140" stroke="#282828"/>
<text x="30" y="232" fill="#aaa" font-family="monospace" font-size="11" font-weight="700">CONTRIBUTION ACTIVITY · 181 IN 2026</text>
<g font-family="monospace" font-size="9" fill="#888"><text x="60" y="248">Jan</text><text x="150" y="248">Feb</text><text x="240" y="248">Mar</text><text x="330" y="248">Apr</text><text x="420" y="248">May</text><text x="510" y="248">Jun</text><text x="600" y="248">Jul</text><text x="690" y="248">Aug</text><text x="780" y="248">Sep</text><text x="870" y="248">Oct</text><text x="960" y="248">Nov</text><text x="1050" y="248">Dec</text></g>
<text x="30" y="266" fill="#888" font-family="monospace" font-size="9">Mon</text><text x="30" y="288" fill="#888" font-family="monospace" font-size="9">Wed</text><text x="30" y="310" fill="#888" font-family="monospace" font-size="9">Fri</text>
<g fill="#1a1a1a">
<rect x="55" y="255" width="9" height="9"/><rect x="68" y="255" width="9" height="9"/><rect x="81" y="255" width="9" height="9"/><rect x="94" y="255" width="9" height="9"/><rect x="107" y="255" width="9" height="9"/><rect x="120" y="255" width="9" height="9"/><rect x="133" y="255" width="9" height="9"/><rect x="146" y="255" width="9" height="9"/><rect x="159" y="255" width="9" height="9"/><rect x="172" y="255" width="9" height="9"/><rect x="185" y="255" width="9" height="9"/><rect x="198" y="255" width="9" height="9"/><rect x="211" y="255" width="9" height="9"/><rect x="224" y="255" width="9" height="9"/><rect x="237" y="255" width="9" height="9"/><rect x="250" y="255" width="9" height="9"/><rect x="263" y="255" width="9" height="9"/><rect x="276" y="255" width="9" height="9"/><rect x="289" y="255" width="9" height="9"/><rect x="302" y="255" width="9" height="9"/><rect x="315" y="255" width="9" height="9"/><rect x="328" y="255" width="9" height="9"/><rect x="341" y="255" width="9" height="9"/><rect x="354" y="255" width="9" height="9"/><rect x="367" y="255" width="9" height="9"/><rect x="380" y="255" width="9" height="9"/><rect x="393" y="255" width="9" height="9"/><rect x="406" y="255" width="9" height="9"/><rect x="419" y="255" width="9" height="9"/><rect x="432" y="255" width="9" height="9"/><rect x="445" y="255" width="9" height="9"/><rect x="458" y="255" width="9" height="9"/><rect x="471" y="255" width="9" height="9"/><rect x="497" y="255" width="9" height="9" fill="#4c1a1a"/><rect x="510" y="255" width="9" height="9" fill="#e50914"/><rect x="536" y="255" width="9" height="9" fill="#4c1a1a"/><rect x="549" y="255" width="9" height="9" fill="#8a1414"/><rect x="562" y="255" width="9" height="9"/><rect x="575" y="255" width="9" height="9"/>
<rect x="55" y="277" width="9" height="9" fill="#8a1414"/><rect x="68" y="277" width="9" height="9"/><rect x="81" y="277" width="9" height="9"/><rect x="94" y="277" width="9" height="9"/><rect x="107" y="277" width="9" height="9"/><rect x="120" y="277" width="9" height="9"/><rect x="133" y="277" width="9" height="9"/><rect x="146" y="277" width="9" height="9"/><rect x="159" y="277" width="9" height="9"/><rect x="172" y="277" width="9" height="9"/><rect x="185" y="277" width="9" height="9"/><rect x="198" y="277" width="9" height="9"/><rect x="211" y="277" width="9" height="9"/><rect x="224" y="277" width="9" height="9"/><rect x="237" y="277" width="9" height="9"/><rect x="250" y="277" width="9" height="9"/><rect x="263" y="277" width="9" height="9"/><rect x="276" y="277" width="9" height="9"/><rect x="289" y="277" width="9" height="9"/><rect x="302" y="277" width="9" height="9"/><rect x="315" y="277" width="9" height="9"/><rect x="328" y="277" width="9" height="9"/><rect x="341" y="277" width="9" height="9"/><rect x="354" y="277" width="9" height="9"/><rect x="367" y="277" width="9" height="9"/><rect x="380" y="277" width="9" height="9"/><rect x="393" y="277" width="9" height="9"/><rect x="406" y="277" width="9" height="9" fill="#4c1a1a"/><rect x="419" y="277" width="9" height="9"/><rect x="432" y="277" width="9" height="9"/><rect x="445" y="277" width="9" height="9"/><rect x="458" y="277" width="9" height="9"/><rect x="471" y="277" width="9" height="9"/><rect x="497" y="277" width="9" height="9" fill="#4c1a1a"/><rect x="510" y="277" width="9" height="9" fill="#8a1414"/><rect x="536" y="277" width="9" height="9" fill="#8a1414"/><rect x="549" y="277" width="9" height="9" fill="#e50914"/><rect x="562" y="277" width="9" height="9"/><rect x="575" y="277" width="9" height="9"/>
<rect x="55" y="299" width="9" height="9"/><rect x="68" y="299" width="9" height="9" fill="#8a1414"/><rect x="81" y="299" width="9" height="9"/><rect x="94" y="299" width="9" height="9"/><rect x="107" y="299" width="9" height="9"/><rect x="120" y="299" width="9" height="9"/><rect x="133" y="299" width="9" height="9"/><rect x="146" y="299" width="9" height="9"/><rect x="159" y="299" width="9" height="9"/><rect x="172" y="299" width="9" height="9"/><rect x="185" y="299" width="9" height="9"/><rect x="198" y="299" width="9" height="9"/><rect x="211" y="299" width="9" height="9"/><rect x="224" y="299" width="9" height="9"/><rect x="237" y="299" width="9" height="9"/><rect x="250" y="299" width="9" height="9"/><rect x="263" y="299" width="9" height="9"/><rect x="276" y="299" width="9" height="9"/><rect x="289" y="299" width="9" height="9"/><rect x="302" y="299" width="9" height="9"/><rect x="315" y="299" width="9" height="9"/><rect x="328" y="299" width="9" height="9"/><rect x="341" y="299" width="9" height="9"/><rect x="354" y="299" width="9" height="9"/><rect x="367" y="299" width="9" height="9"/><rect x="380" y="299" width="9" height="9"/><rect x="393" y="299" width="9" height="9"/><rect x="406" y="299" width="9" height="9" fill="#4c1a1a"/><rect x="419" y="299" width="9" height="9"/><rect x="432" y="299" width="9" height="9"/><rect x="445" y="299" width="9" height="9"/><rect x="458" y="299" width="9" height="9"/><rect x="471" y="299" width="9" height="9"/><rect x="497" y="299" width="9" height="9" fill="#e50914"/><rect x="510" y="299" width="9" height="9" fill="#4c1a1a"/><rect x="536" y="299" width="9" height="9" fill="#8a1414"/><rect x="549" y="299" width="9" height="9"/><rect x="562" y="299" width="9" height="9"/><rect x="575" y="299" width="9" height="9"/>
</g>
<g font-family="monospace" font-size="9" fill="#666"><text x="1030" y="316">Less</text></g>
<g><rect x="1055" y="308" width="9" height="9" fill="#1a1a1a"/><rect x="1068" y="308" width="9" height="9" fill="#4c1a1a"/><rect x="1081" y="308" width="9" height="9" fill="#8a1414"/><rect x="1094" y="308" width="9" height="9" fill="#e50914"/></g>
<text x="1108" y="316" fill="#666" font-family="monospace" font-size="9">More</text>
</svg>
