<svg xmlns="http://www.w3.org/2000/svg" viewBox="0 0 1200 360" role="img" aria-labelledby="t d"><title id="t">GitHub telemetry</title><desc id="d">GitHub contribution stats: total contributions, current streak, longest streak and a full year contribution activity grid.</desc>
<defs>
  <linearGradient id="tCard" x1="0" y1="0" x2="0" y2="1">
    <stop offset="0%" stop-color="#161010"/>
    <stop offset="100%" stop-color="#0e0b0b"/>
  </linearGradient>
  <linearGradient id="tAccent" x1="0" y1="0" x2="1" y2="0">
    <stop offset="0%" stop-color="#ff5050"/>
    <stop offset="50%" stop-color="#e50914"/>
    <stop offset="100%" stop-color="#7a0a0f"/>
  </linearGradient>
</defs>
<rect width="1200" height="360" fill="#0d0d0d" stroke="#333"/>
<g font-family="monospace" font-weight="700" font-size="19"><text x="30" y="42" fill="#e50914">04_</text><text x="88" y="42" fill="#fff">GITHUB TELEMETRY</text></g><path d="M30 60h1140" stroke="#333"/>

<g>
  <rect x="30" y="78" width="360" height="86" rx="12" fill="url(#tCard)" stroke="#3a2020"/>
  <rect x="420" y="78" width="360" height="86" rx="12" fill="url(#tCard)" stroke="#3a2020"/>
  <rect x="810" y="78" width="360" height="86" rx="12" fill="url(#tCard)" stroke="#3a2020"/>
</g>
<g font-family="monospace" fill="#aaa" font-size="11" font-weight="700" letter-spacing="0.5">
  <text x="52" y="102">TOTAL CONTRIBUTIONS</text>
  <text x="442" y="102">CURRENT STREAK</text>
  <text x="832" y="102">LONGEST STREAK</text>
</g>
<text x="52" y="140" fill="#fff" font-family="Arial" font-size="32" font-weight="800">754</text>
<text x="52" y="157" fill="#777" font-family="Arial" font-size="11">Aug 6, 2023 - Present</text>

<g transform="translate(462 128)"><circle r="20" fill="none" stroke="url(#tAccent)" stroke-width="3.5"/><path d="M0-9c4 5-4 6-1 11c1 3 6 3 6-1c2 4 0 9-4 10c-6 1-11-4-9-10c1-3 4-6 4-10" fill="#e50914"/></g>
<text x="500" y="135" fill="#fff" font-family="Arial" font-size="24" font-weight="800">3</text>
<text x="500" y="152" fill="#777" font-family="Arial" font-size="11">days</text>

<text x="842" y="140" fill="#fff" font-family="Arial" font-size="32" font-weight="800">7</text>
<text x="842" y="157" fill="#777" font-family="Arial" font-size="11">Apr 13 - Apr 19, 2024</text>

<path d="M30 186h1140" stroke="#282828"/>
<text x="30" y="208" fill="#aaa" font-family="monospace" font-size="11" font-weight="700" letter-spacing="0.5">CONTRIBUTION ACTIVITY &#183; 313 IN THE LAST YEAR</text>

<g font-family="monospace" font-size="9.5" fill="#888">
<text x="60" y="248">Jan</text><text x="108" y="248">Feb</text><text x="168" y="248">Mar</text><text x="216" y="248">Apr</text><text x="276" y="248">May</text><text x="324" y="248">Jun</text><text x="372" y="248">Jul</text><text x="432" y="248">Aug</text><text x="480" y="248">Sep</text><text x="540" y="248">Oct</text><text x="588" y="248">Nov</text><text x="648" y="248">Dec</text>
</g>
<g font-family="monospace" font-size="9.5" fill="#888">
<text x="30" y="266">Mon</text><text x="30" y="288">Wed</text><text x="30" y="310">Fri</text>
</g>

<g>
<rect x="60" y="258" width="9" height="9" rx="2" fill="#7a1010"/><rect x="60" y="270" width="9" height="9" rx="2" fill="#b80c0c"/><rect x="60" y="282" width="9" height="9" rx="2" fill="#1a1a1a"/><rect x="60" y="294" width="9" height="9" rx="2" fill="#b80c0c"/><rect x="60" y="306" width="9" height="9" rx="2" fill="#3a1414"/><rect x="60" y="318" width="9" height="9" rx="2" fill="#3a1414"/><rect x="60" y="330" width="9" height="9" rx="2" fill="#e50914"/><rect x="72" y="258" width="9" height="9" rx="2" fill="#3a1414"/><rect x="72" y="270" width="9" height="9" rx="2" fill="#e50914"/><rect x="72" y="282" width="9" height="9" rx="2" fill="#3a1414"/><rect x="72" y="294" width="9" height="9" rx="2" fill="#e50914"/><rect x="72" y="306" width="9" height="9" rx="2" fill="#b80c0c"/><rect x="72" y="318" width="9" height="9" rx="2" fill="#3a1414"/><rect x="72" y="330" width="9" height="9" rx="2" fill="#1a1a1a"/><rect x="84" y="258" width="9" height="9" rx="2" fill="#b80c0c"/><rect x="84" y="270" width="9" height="9" rx="2" fill="#7a1010"/><rect x="84" y="282" width="9" height="9" rx="2" fill="#1a1a1a"/><rect x="84" y="294" width="9" height="9" rx="2" fill="#1a1a1a"/><rect x="84" y="306" width="9" height="9" rx="2" fill="#1a1a1a"/><rect x="84" y="318" width="9" height="9" rx="2" fill="#3a1414"/><rect x="84" y="330" width="9" height="9" rx="2" fill="#1a1a1a"/><rect x="96" y="258" width="9" height="9" rx="2" fill="#e50914"/><rect x="96" y="270" width="9" height="9" rx="2" fill="#1a1a1a"/><rect x="96" y="282" width="9" height="9" rx="2" fill="#7a1010"/><rect x="96" y="294" width="9" height="9" rx="2" fill="#b80c0c"/><rect x="96" y="306" width="9" height="9" rx="2" fill="#b80c0c"/><rect x="96" y="318" width="9" height="9" rx="2" fill="#7a1010"/><rect x="96" y="330" width="9" height="9" rx="2" fill="#1a1a1a"/><rect x="108" y="258" width="9" height="9" rx="2" fill="#b80c0c"/><rect x="108" y="270" width="9" height="9" rx="2" fill="#1a1a1a"/><rect x="108" y="282" width="9" height="9" rx="2" fill="#1a1a1a"/><rect x="108" y="294" width="9" height="9" rx="2" fill="#3a1414"/><rect x="108" y="306" width="9" height="9" rx="2" fill="#3a1414"/><rect x="108" y="318" width="9" height="9" rx="2" fill="#e50914"/><rect x="108" y="330" width="9" height="9" rx="2" fill="#e50914"/><rect x="120" y="258" width="9" height="9" rx="2" fill="#7a1010"/><rect x="120" y="270" width="9" height="9" rx="2" fill="#1a1a1a"/><rect x="120" y="282" width="9" height="9" rx="2" fill="#3a1414"/><rect x="120" y="294" width="9" height="9" rx="2" fill="#7a1010"/><rect x="120" y="306" width="9" height="9" rx="2" fill="#1a1a1a"/><rect x="120" y="318" width="9" height="9" rx="2" fill="#3a1414"/><rect x="120" y="330" width="9" height="9" rx="2" fill="#7a1010"/><rect x="132" y="258" width="9" height="9" rx="2" fill="#1a1a1a"/><rect x="132" y="270" width="9" height="9" rx="2" fill="#1a1a1a"/><rect x="132" y="282" width="9" height="9" rx="2" fill="#7a1010"/><rect x="132" y="294" width="9" height="9" rx="2" fill="#1a1a1a"/><rect x="132" y="306" width="9" height="9" rx="2" fill="#3a1414"/><rect x="132" y="318" width="9" height="9" rx="2" fill="#1a1a1a"/><rect x="132" y="330" width="9" height="9" rx="2" fill="#1a1a1a"/><rect x="144" y="258" width="9" height="9" rx="2" fill="#7a1010"/><rect x="144" y="270" width="9" height="9" rx="2" fill="#1a1a1a"/><rect x="144" y="282" width="9" height="9" rx="2" fill="#b80c0c"/><rect x="144" y="294" width="9" height="9" rx="2" fill="#3a1414"/><rect x="144" y="306" width="9" height="9" rx="2" fill="#1a1a1a"/><rect x="144" y="318" width="9" height="9" rx="2" fill="#b80c0c"/><rect x="144" y="330" width="9" height="9" rx="2" fill="#3a1414"/><rect x="156" y="258" width="9" height="9" rx="2" fill="#e50914"/><rect x="156" y="270" width="9" height="9" rx="2" fill="#1a1a1a"/><rect x="156" y="282" width="9" height="9" rx="2" fill="#1a1a1a"/><rect x="156" y="294" width="9" height="9" rx="2" fill="#1a1a1a"/><rect x="156" y="306" width="9" height="9" rx="2" fill="#1a1a1a"/><rect x="156" y="318" width="9" height="9" rx="2" fill="#7a1010"/><rect x="156" y="330" width="9" height="9" rx="2" fill="#1a1a1a"/><rect x="168" y="258" width="9" height="9" rx="2" fill="#1a1a1a"/><rect x="168" y="270" width="9" height="9" rx="2" fill="#1a1a1a"/><rect x="168" y="282" width="9" height="9" rx="2" fill="#3a1414"/><rect x="168" y="294" width="9" height="9" rx="2" fill="#1a1a1a"/><rect x="168" y="306" width="9" height="9" rx="2" fill="#1a1a1a"/><rect x="168" y="318" width="9" height="9" rx="2" fill="#3a1414"/><rect x="168" y="330" width="9" height="9" rx="2" fill="#1a1a1a"/><rect x="180" y="258" width="9" height="9" rx="2" fill="#e50914"/><rect x="180" y="270" width="9" height="9" rx="2" fill="#1a1a1a"/><rect x="180" y="282" width="9" height="9" rx="2" fill="#1a1a1a"/><rect x="180" y="294" width="9" height="9" rx="2" fill="#1a1a1a"/><rect x="180" y="306" width="9" height="9" rx="2" fill="#1a1a1a"/><rect x="180" y="318" width="9" height="9" rx="2" fill="#7a1010"/><rect x="180" y="330" width="9" height="9" rx="2" fill="#3a1414"/><rect x="192" y="258" width="9" height="9" rx="2" fill="#1a1a1a"/><rect x="192" y="270" width="9" height="9" rx="2" fill="#e50914"/><rect x="192" y="282" width="9" height="9" rx="2" fill="#3a1414"/><rect x="192" y="294" width="9" height="9" rx="2" fill="#b80c0c"/><rect x="192" y="306" width="9" height="9" rx="2" fill="#b80c0c"/><rect x="192" y="318" width="9" height="9" rx="2" fill="#e50914"/><rect x="192" y="330" width="9" height="9" rx="2" fill="#1a1a1a"/><rect x="204" y="258" width="9" height="9" rx="2" fill="#b80c0c"/><rect x="204" y="270" width="9" height="9" rx="2" fill="#7a1010"/><rect x="204" y="282" width="9" height="9" rx="2" fill="#3a1414"/><rect x="204" y="294" width="9" height="9" rx="2" fill="#1a1a1a"/><rect x="204" y="306" width="9" height="9" rx="2" fill="#b80c0c"/><rect x="204" y="318" width="9" height="9" rx="2" fill="#3a1414"/><rect x="204" y="330" width="9" height="9" rx="2" fill="#3a1414"/><rect x="216" y="258" width="9" height="9" rx="2" fill="#1a1a1a"/><rect x="216" y="270" width="9" height="9" rx="2" fill="#1a1a1a"/><rect x="216" y="282" width="9" height="9" rx="2" fill="#1a1a1a"/><rect x="216" y="294" width="9" height="9" rx="2" fill="#7a1010"/><rect x="216" y="306" width="9" height="9" rx="2" fill="#3a1414"/><rect x="216" y="318" width="9" height="9" rx="2" fill="#3a1414"/><rect x="216" y="330" width="9" height="9" rx="2" fill="#1a1a1a"/><rect x="228" y="258" width="9" height="9" rx="2" fill="#1a1a1a"/><rect x="228" y="270" width="9" height="9" rx="2" fill="#b80c0c"/><rect x="228" y="282" width="9" height="9" rx="2" fill="#b80c0c"/><rect x="228" y="294" width="9" height="9" rx="2" fill="#7a1010"/><rect x="228" y="306" width="9" height="9" rx="2" fill="#7a1010"/><rect x="228" y="318" width="9" height="9" rx="2" fill="#3a1414"/><rect x="228" y="330" width="9" height="9" rx="2" fill="#1a1a1a"/><rect x="240" y="258" width="9" height="9" rx="2" fill="#7a1010"/><rect x="240" y="270" width="9" height="9" rx="2" fill="#e50914"/><rect x="240" y="282" width="9" height="9" rx="2" fill="#3a1414"/><rect x="240" y="294" width="9" height="9" rx="2" fill="#3a1414"/><rect x="240" y="306" width="9" height="9" rx="2" fill="#1a1a1a"/><rect x="240" y="318" width="9" height="9" rx="2" fill="#1a1a1a"/><rect x="240" y="330" width="9" height="9" rx="2" fill="#1a1a1a"/><rect x="252" y="258" width="9" height="9" rx="2" fill="#3a1414"/><rect x="252" y="270" width="9" height="9" rx="2" fill="#1a1a1a"/><rect x="252" y="282" width="9" height="9" rx="2" fill="#1a1a1a"/><rect x="252" y="294" width="9" height="9" rx="2" fill="#e50914"/><rect x="252" y="306" width="9" height="9" rx="2" fill="#1a1a1a"/><rect x="252" y="318" width="9" height="9" rx="2" fill="#1a1a1a"/><rect x="252" y="330" width="9" height="9" rx="2" fill="#1a1a1a"/><rect x="264" y="258" width="9" height="9" rx="2" fill="#1a1a1a"/><rect x="264" y="270" width="9" height="9" rx="2" fill="#3a1414"/><rect x="264" y="282" width="9" height="9" rx="2" fill="#3a1414"/><rect x="264" y="294" width="9" height="9" rx="2" fill="#b80c0c"/><rect x="264" y="306" width="9" height="9" rx="2" fill="#1a1a1a"/><rect x="264" y="318" width="9" height="9" rx="2" fill="#e50914"/><rect x="264" y="330" width="9" height="9" rx="2" fill="#e50914"/><rect x="276" y="258" width="9" height="9" rx="2" fill="#7a1010"/><rect x="276" y="270" width="9" height="9" rx="2" fill="#b80c0c"/><rect x="276" y="282" width="9" height="9" rx="2" fill="#3a1414"/><rect x="276" y="294" width="9" height="9" rx="2" fill="#e50914"/><rect x="276" y="306" width="9" height="9" rx="2" fill="#e50914"/><rect x="276" y="318" width="9" height="9" rx="2" fill="#b80c0c"/><rect x="276" y="330" width="9" height="9" rx="2" fill="#b80c0c"/><rect x="288" y="258" width="9" height="9" rx="2" fill="#3a1414"/><rect x="288" y="270" width="9" height="9" rx="2" fill="#e50914"/><rect x="288" y="282" width="9" height="9" rx="2" fill="#1a1a1a"/><rect x="288" y="294" width="9" height="9" rx="2" fill="#1a1a1a"/><rect x="288" y="306" width="9" height="9" rx="2" fill="#b80c0c"/><rect x="288" y="318" width="9" height="9" rx="2" fill="#7a1010"/><rect x="288" y="330" width="9" height="9" rx="2" fill="#3a1414"/><rect x="300" y="258" width="9" height="9" rx="2" fill="#3a1414"/><rect x="300" y="270" width="9" height="9" rx="2" fill="#b80c0c"/><rect x="300" y="282" width="9" height="9" rx="2" fill="#1a1a1a"/><rect x="300" y="294" width="9" height="9" rx="2" fill="#1a1a1a"/><rect x="300" y="306" width="9" height="9" rx="2" fill="#3a1414"/><rect x="300" y="318" width="9" height="9" rx="2" fill="#3a1414"/><rect x="300" y="330" width="9" height="9" rx="2" fill="#b80c0c"/><rect x="312" y="258" width="9" height="9" rx="2" fill="#b80c0c"/><rect x="312" y="270" width="9" height="9" rx="2" fill="#3a1414"/><rect x="312" y="282" width="9" height="9" rx="2" fill="#7a1010"/><rect x="312" y="294" width="9" height="9" rx="2" fill="#1a1a1a"/><rect x="312" y="306" width="9" height="9" rx="2" fill="#b80c0c"/><rect x="312" y="318" width="9" height="9" rx="2" fill="#e50914"/><rect x="312" y="330" width="9" height="9" rx="2" fill="#1a1a1a"/><rect x="324" y="258" width="9" height="9" rx="2" fill="#3a1414"/><rect x="324" y="270" width="9" height="9" rx="2" fill="#b80c0c"/><rect x="324" y="282" width="9" height="9" rx="2" fill="#3a1414"/><rect x="324" y="294" width="9" height="9" rx="2" fill="#e50914"/><rect x="324" y="306" width="9" height="9" rx="2" fill="#3a1414"/><rect x="324" y="318" width="9" height="9" rx="2" fill="#1a1a1a"/><rect x="324" y="330" width="9" height="9" rx="2" fill="#1a1a1a"/><rect x="336" y="258" width="9" height="9" rx="2" fill="#1a1a1a"/><rect x="336" y="270" width="9" height="9" rx="2" fill="#7a1010"/><rect x="336" y="282" width="9" height="9" rx="2" fill="#3a1414"/><rect x="336" y="294" width="9" height="9" rx="2" fill="#b80c0c"/><rect x="336" y="306" width="9" height="9" rx="2" fill="#1a1a1a"/><rect x="336" y="318" width="9" height="9" rx="2" fill="#3a1414"/><rect x="336" y="330" width="9" height="9" rx="2" fill="#1a1a1a"/><rect x="348" y="258" width="9" height="9" rx="2" fill="#7a1010"/><rect x="348" y="270" width="9" height="9" rx="2" fill="#7a1010"/><rect x="348" y="282" width="9" height="9" rx="2" fill="#1a1a1a"/><rect x="348" y="294" width="9" height="9" rx="2" fill="#1a1a1a"/><rect x="348" y="306" width="9" height="9" rx="2" fill="#1a1a1a"/><rect x="348" y="318" width="9" height="9" rx="2" fill="#1a1a1a"/><rect x="348" y="330" width="9" height="9" rx="2" fill="#1a1a1a"/><rect x="360" y="258" width="9" height="9" rx="2" fill="#1a1a1a"/><rect x="360" y="270" width="9" height="9" rx="2" fill="#7a1010"/><rect x="360" y="282" width="9" height="9" rx="2" fill="#3a1414"/><rect x="360" y="294" width="9" height="9" rx="2" fill="#3a1414"/><rect x="360" y="306" width="9" height="9" rx="2" fill="#e50914"/><rect x="360" y="318" width="9" height="9" rx="2" fill="#e50914"/><rect x="360" y="330" width="9" height="9" rx="2" fill="#7a1010"/><rect x="372" y="258" width="9" height="9" rx="2" fill="#7a1010"/><rect x="372" y="270" width="9" height="9" rx="2" fill="#1a1a1a"/><rect x="372" y="282" width="9" height="9" rx="2" fill="#1a1a1a"/><rect x="372" y="294" width="9" height="9" rx="2" fill="#3a1414"/><rect x="372" y="306" width="9" height="9" rx="2" fill="#1a1a1a"/><rect x="372" y="318" width="9" height="9" rx="2" fill="#1a1a1a"/><rect x="372" y="330" width="9" height="9" rx="2" fill="#1a1a1a"/><rect x="384" y="258" width="9" height="9" rx="2" fill="#3a1414"/><rect x="384" y="270" width="9" height="9" rx="2" fill="#7a1010"/><rect x="384" y="282" width="9" height="9" rx="2" fill="#7a1010"/><rect x="384" y="294" width="9" height="9" rx="2" fill="#7a1010"/><rect x="384" y="306" width="9" height="9" rx="2" fill="#7a1010"/><rect x="384" y="318" width="9" height="9" rx="2" fill="#1a1a1a"/><rect x="384" y="330" width="9" height="9" rx="2" fill="#1a1a1a"/><rect x="396" y="258" width="9" height="9" rx="2" fill="#1a1a1a"/><rect x="396" y="270" width="9" height="9" rx="2" fill="#3a1414"/><rect x="396" y="282" width="9" height="9" rx="2" fill="#1a1a1a"/><rect x="396" y="294" width="9" height="9" rx="2" fill="#1a1a1a"/><rect x="396" y="306" width="9" height="9" rx="2" fill="#b80c0c"/><rect x="396" y="318" width="9" height="9" rx="2" fill="#1a1a1a"/><rect x="396" y="330" width="9" height="9" rx="2" fill="#1a1a1a"/><rect x="408" y="258" width="9" height="9" rx="2" fill="#1a1a1a"/><rect x="408" y="270" width="9" height="9" rx="2" fill="#1a1a1a"/><rect x="408" y="282" width="9" height="9" rx="2" fill="#3a1414"/><rect x="408" y="294" width="9" height="9" rx="2" fill="#b80c0c"/><rect x="408" y="306" width="9" height="9" rx="2" fill="#1a1a1a"/><rect x="408" y="318" width="9" height="9" rx="2" fill="#7a1010"/><rect x="408" y="330" width="9" height="9" rx="2" fill="#1a1a1a"/><rect x="420" y="258" width="9" height="9" rx="2" fill="#1a1a1a"/><rect x="420" y="270" width="9" height="9" rx="2" fill="#3a1414"/><rect x="420" y="282" width="9" height="9" rx="2" fill="#3a1414"/><rect x="420" y="294" width="9" height="9" rx="2" fill="#1a1a1a"/><rect x="420" y="306" width="9" height="9" rx="2" fill="#1a1a1a"/><rect x="420" y="318" width="9" height="9" rx="2" fill="#b80c0c"/><rect x="420" y="330" width="9" height="9" rx="2" fill="#b80c0c"/><rect x="432" y="258" width="9" height="9" rx="2" fill="#b80c0c"/><rect x="432" y="270" width="9" height="9" rx="2" fill="#1a1a1a"/><rect x="432" y="282" width="9" height="9" rx="2" fill="#1a1a1a"/><rect x="432" y="294" width="9" height="9" rx="2" fill="#b80c0c"/><rect x="432" y="306" width="9" height="9" rx="2" fill="#1a1a1a"/><rect x="432" y="318" width="9" height="9" rx="2" fill="#1a1a1a"/><rect x="432" y="330" width="9" height="9" rx="2" fill="#1a1a1a"/><rect x="444" y="258" width="9" height="9" rx="2" fill="#3a1414"/><rect x="444" y="270" width="9" height="9" rx="2" fill="#3a1414"/><rect x="444" y="282" width="9" height="9" rx="2" fill="#b80c0c"/><rect x="444" y="294" width="9" height="9" rx="2" fill="#e50914"/><rect x="444" y="306" width="9" height="9" rx="2" fill="#1a1a1a"/><rect x="444" y="318" width="9" height="9" rx="2" fill="#1a1a1a"/><rect x="444" y="330" width="9" height="9" rx="2" fill="#3a1414"/><rect x="456" y="258" width="9" height="9" rx="2" fill="#1a1a1a"/><rect x="456" y="270" width="9" height="9" rx="2" fill="#3a1414"/><rect x="456" y="282" width="9" height="9" rx="2" fill="#1a1a1a"/><rect x="456" y="294" width="9" height="9" rx="2" fill="#1a1a1a"/><rect x="456" y="306" width="9" height="9" rx="2" fill="#7a1010"/><rect x="456" y="318" width="9" height="9" rx="2" fill="#7a1010"/><rect x="456" y="330" width="9" height="9" rx="2" fill="#7a1010"/><rect x="468" y="258" width="9" height="9" rx="2" fill="#7a1010"/><rect x="468" y="270" width="9" height="9" rx="2" fill="#1a1a1a"/><rect x="468" y="282" width="9" height="9" rx="2" fill="#7a1010"/><rect x="468" y="294" width="9" height="9" rx="2" fill="#3a1414"/><rect x="468" y="306" width="9" height="9" rx="2" fill="#b80c0c"/><rect x="468" y="318" width="9" height="9" rx="2" fill="#1a1a1a"/><rect x="468" y="330" width="9" height="9" rx="2" fill="#3a1414"/><rect x="480" y="258" width="9" height="9" rx="2" fill="#3a1414"/><rect x="480" y="270" width="9" height="9" rx="2" fill="#1a1a1a"/><rect x="480" y="282" width="9" height="9" rx="2" fill="#1a1a1a"/><rect x="480" y="294" width="9" height="9" rx="2" fill="#3a1414"/><rect x="480" y="306" width="9" height="9" rx="2" fill="#1a1a1a"/><rect x="480" y="318" width="9" height="9" rx="2" fill="#3a1414"/><rect x="480" y="330" width="9" height="9" rx="2" fill="#3a1414"/><rect x="492" y="258" width="9" height="9" rx="2" fill="#3a1414"/><rect x="492" y="270" width="9" height="9" rx="2" fill="#e50914"/><rect x="492" y="282" width="9" height="9" rx="2" fill="#3a1414"/><rect x="492" y="294" width="9" height="9" rx="2" fill="#b80c0c"/><rect x="492" y="306" width="9" height="9" rx="2" fill="#e50914"/><rect x="492" y="318" width="9" height="9" rx="2" fill="#1a1a1a"/><rect x="492" y="330" width="9" height="9" rx="2" fill="#b80c0c"/><rect x="504" y="258" width="9" height="9" rx="2" fill="#3a1414"/><rect x="504" y="270" width="9" height="9" rx="2" fill="#1a1a1a"/><rect x="504" y="282" width="9" height="9" rx="2" fill="#1a1a1a"/><rect x="504" y="294" width="9" height="9" rx="2" fill="#7a1010"/><rect x="504" y="306" width="9" height="9" rx="2" fill="#3a1414"/><rect x="504" y="318" width="9" height="9" rx="2" fill="#1a1a1a"/><rect x="504" y="330" width="9" height="9" rx="2" fill="#1a1a1a"/><rect x="516" y="258" width="9" height="9" rx="2" fill="#b80c0c"/><rect x="516" y="270" width="9" height="9" rx="2" fill="#1a1a1a"/><rect x="516" y="282" width="9" height="9" rx="2" fill="#7a1010"/><rect x="516" y="294" width="9" height="9" rx="2" fill="#7a1010"/><rect x="516" y="306" width="9" height="9" rx="2" fill="#1a1a1a"/><rect x="516" y="318" width="9" height="9" rx="2" fill="#3a1414"/><rect x="516" y="330" width="9" height="9" rx="2" fill="#1a1a1a"/><rect x="528" y="258" width="9" height="9" rx="2" fill="#1a1a1a"/><rect x="528" y="270" width="9" height="9" rx="2" fill="#1a1a1a"/><rect x="528" y="282" width="9" height="9" rx="2" fill="#3a1414"/><rect x="528" y="294" width="9" height="9" rx="2" fill="#1a1a1a"/><rect x="528" y="306" width="9" height="9" rx="2" fill="#3a1414"/><rect x="528" y="318" width="9" height="9" rx="2" fill="#3a1414"/><rect x="528" y="330" width="9" height="9" rx="2" fill="#1a1a1a"/><rect x="540" y="258" width="9" height="9" rx="2" fill="#3a1414"/><rect x="540" y="270" width="9" height="9" rx="2" fill="#3a1414"/><rect x="540" y="282" width="9" height="9" rx="2" fill="#3a1414"/><rect x="540" y="294" width="9" height="9" rx="2" fill="#1a1a1a"/><rect x="540" y="306" width="9" height="9" rx="2" fill="#1a1a1a"/><rect x="540" y="318" width="9" height="9" rx="2" fill="#1a1a1a"/><rect x="540" y="330" width="9" height="9" rx="2" fill="#1a1a1a"/><rect x="552" y="258" width="9" height="9" rx="2" fill="#7a1010"/><rect x="552" y="270" width="9" height="9" rx="2" fill="#1a1a1a"/><rect x="552" y="282" width="9" height="9" rx="2" fill="#1a1a1a"/><rect x="552" y="294" width="9" height="9" rx="2" fill="#1a1a1a"/><rect x="552" y="306" width="9" height="9" rx="2" fill="#b80c0c"/><rect x="552" y="318" width="9" height="9" rx="2" fill="#b80c0c"/><rect x="552" y="330" width="9" height="9" rx="2" fill="#3a1414"/><rect x="564" y="258" width="9" height="9" rx="2" fill="#b80c0c"/><rect x="564" y="270" width="9" height="9" rx="2" fill="#7a1010"/><rect x="564" y="282" width="9" height="9" rx="2" fill="#b80c0c"/><rect x="564" y="294" width="9" height="9" rx="2" fill="#1a1a1a"/><rect x="564" y="306" width="9" height="9" rx="2" fill="#1a1a1a"/><rect x="564" y="318" width="9" height="9" rx="2" fill="#1a1a1a"/><rect x="564" y="330" width="9" height="9" rx="2" fill="#b80c0c"/><rect x="576" y="258" width="9" height="9" rx="2" fill="#1a1a1a"/><rect x="576" y="270" width="9" height="9" rx="2" fill="#1a1a1a"/><rect x="576" y="282" width="9" height="9" rx="2" fill="#b80c0c"/><rect x="576" y="294" width="9" height="9" rx="2" fill="#1a1a1a"/><rect x="576" y="306" width="9" height="9" rx="2" fill="#1a1a1a"/><rect x="576" y="318" width="9" height="9" rx="2" fill="#7a1010"/><rect x="576" y="330" width="9" height="9" rx="2" fill="#1a1a1a"/><rect x="588" y="258" width="9" height="9" rx="2" fill="#3a1414"/><rect x="588" y="270" width="9" height="9" rx="2" fill="#3a1414"/><rect x="588" y="282" width="9" height="9" rx="2" fill="#1a1a1a"/><rect x="588" y="294" width="9" height="9" rx="2" fill="#1a1a1a"/><rect x="588" y="306" width="9" height="9" rx="2" fill="#b80c0c"/><rect x="588" y="318" width="9" height="9" rx="2" fill="#3a1414"/><rect x="588" y="330" width="9" height="9" rx="2" fill="#3a1414"/><rect x="600" y="258" width="9" height="9" rx="2" fill="#e50914"/><rect x="600" y="270" width="9" height="9" rx="2" fill="#e50914"/><rect x="600" y="282" width="9" height="9" rx="2" fill="#e50914"/><rect x="600" y="294" width="9" height="9" rx="2" fill="#3a1414"/><rect x="600" y="306" width="9" height="9" rx="2" fill="#e50914"/><rect x="600" y="318" width="9" height="9" rx="2" fill="#7a1010"/><rect x="600" y="330" width="9" height="9" rx="2" fill="#b80c0c"/><rect x="612" y="258" width="9" height="9" rx="2" fill="#e50914"/><rect x="612" y="270" width="9" height="9" rx="2" fill="#e50914"/><rect x="612" y="282" width="9" height="9" rx="2" fill="#7a1010"/><rect x="612" y="294" width="9" height="9" rx="2" fill="#7a1010"/><rect x="612" y="306" width="9" height="9" rx="2" fill="#e50914"/><rect x="612" y="318" width="9" height="9" rx="2" fill="#1a1a1a"/><rect x="612" y="330" width="9" height="9" rx="2" fill="#3a1414"/><rect x="624" y="258" width="9" height="9" rx="2" fill="#1a1a1a"/><rect x="624" y="270" width="9" height="9" rx="2" fill="#e50914"/><rect x="624" y="282" width="9" height="9" rx="2" fill="#e50914"/><rect x="624" y="294" width="9" height="9" rx="2" fill="#e50914"/><rect x="624" y="306" width="9" height="9" rx="2" fill="#3a1414"/><rect x="624" y="318" width="9" height="9" rx="2" fill="#e50914"/><rect x="624" y="330" width="9" height="9" rx="2" fill="#e50914"/><rect x="636" y="258" width="9" height="9" rx="2" fill="#b80c0c"/><rect x="636" y="270" width="9" height="9" rx="2" fill="#1a1a1a"/><rect x="636" y="282" width="9" height="9" rx="2" fill="#3a1414"/><rect x="636" y="294" width="9" height="9" rx="2" fill="#e50914"/><rect x="636" y="306" width="9" height="9" rx="2" fill="#e50914"/><rect x="636" y="318" width="9" height="9" rx="2" fill="#1a1a1a"/><rect x="636" y="330" width="9" height="9" rx="2" fill="#7a1010"/><rect x="648" y="258" width="9" height="9" rx="2" fill="#3a1414"/><rect x="648" y="270" width="9" height="9" rx="2" fill="#e50914"/><rect x="648" y="282" width="9" height="9" rx="2" fill="#e50914"/><rect x="648" y="294" width="9" height="9" rx="2" fill="#3a1414"/><rect x="648" y="306" width="9" height="9" rx="2" fill="#b80c0c"/><rect x="648" y="318" width="9" height="9" rx="2" fill="#e50914"/><rect x="648" y="330" width="9" height="9" rx="2" fill="#1a1a1a"/><rect x="660" y="258" width="9" height="9" rx="2" fill="#7a1010"/><rect x="660" y="270" width="9" height="9" rx="2" fill="#3a1414"/><rect x="660" y="282" width="9" height="9" rx="2" fill="#e50914"/><rect x="660" y="294" width="9" height="9" rx="2" fill="#1a1a1a"/><rect x="660" y="306" width="9" height="9" rx="2" fill="#e50914"/><rect x="660" y="318" width="9" height="9" rx="2" fill="#1a1a1a"/><rect x="660" y="330" width="9" height="9" rx="2" fill="#b80c0c"/><rect x="672" y="258" width="9" height="9" rx="2" fill="#e50914"/><rect x="672" y="270" width="9" height="9" rx="2" fill="#7a1010"/><rect x="672" y="282" width="9" height="9" rx="2" fill="#1a1a1a"/><rect x="672" y="294" width="9" height="9" rx="2" fill="#e50914"/><rect x="672" y="306" width="9" height="9" rx="2" fill="#e50914"/><rect x="672" y="318" width="9" height="9" rx="2" fill="#7a1010"/><rect x="672" y="330" width="9" height="9" rx="2" fill="#e50914"/><rect x="684" y="258" width="9" height="9" rx="2" fill="#e50914"/><rect x="684" y="270" width="9" height="9" rx="2" fill="#e50914"/><rect x="684" y="282" width="9" height="9" rx="2" fill="#e50914"/><rect x="684" y="294" width="9" height="9" rx="2" fill="#e50914"/><rect x="684" y="306" width="9" height="9" rx="2" fill="#e50914"/><rect x="684" y="318" width="9" height="9" rx="2" fill="#e50914"/><rect x="684" y="330" width="9" height="9" rx="2" fill="#3a1414"/>
</g>

<g font-family="monospace" font-size="9.5" fill="#666"><text x="1055" y="352">Less</text></g>
<g><rect x="1082" y="344" width="9" height="9" rx="2" fill="#1a1a1a"/><rect x="1095" y="344" width="9" height="9" rx="2" fill="#3a1414"/><rect x="1108" y="344" width="9" height="9" rx="2" fill="#7a1010"/><rect x="1121" y="344" width="9" height="9" rx="2" fill="#e50914"/></g>
<text x="1136" y="352" fill="#666" font-family="monospace" font-size="9.5">More</text>
</svg>
